<svg width="24" height="24" viewBox="0 0 24 24" fill="none" xmlns="http://www.w3.org/2000/svg">
<g clip-path="url(#clip0_777_8500)">
<path d="M10.325 4.31706C10.751 2.56106 13.249 2.56106 13.675 4.31706C13.7389 4.58086 13.8642 4.82584 14.0407 5.03206C14.2172 5.23828 14.4399 5.39992 14.6907 5.50381C14.9414 5.6077 15.2132 5.65091 15.4838 5.62993C15.7544 5.60895 16.0162 5.52436 16.248 5.38306C17.791 4.44306 19.558 6.20906 18.618 7.75306C18.4769 7.98472 18.3924 8.2464 18.3715 8.51683C18.3506 8.78727 18.3938 9.05883 18.4975 9.30944C18.6013 9.56005 18.7627 9.78264 18.9687 9.95911C19.1747 10.1356 19.4194 10.261 19.683 10.3251C21.439 10.7511 21.439 13.2491 19.683 13.6751C19.4192 13.739 19.1742 13.8643 18.968 14.0408C18.7618 14.2173 18.6001 14.4399 18.4963 14.6907C18.3924 14.9415 18.3491 15.2132 18.3701 15.4838C18.3911 15.7545 18.4757 16.0163 18.617 16.2481C19.557 17.7911 17.791 19.5581 16.247 18.6181C16.0153 18.477 15.7537 18.3925 15.4832 18.3716C15.2128 18.3506 14.9412 18.3938 14.6906 18.4976C14.44 18.6014 14.2174 18.7628 14.0409 18.9688C13.8645 19.1748 13.7391 19.4195 13.675 19.6831C13.249 21.4391 10.751 21.4391 10.325 19.6831C10.2611 19.4193 10.1358 19.1743 9.95929 18.9681C9.7828 18.7618 9.56011 18.6002 9.30935 18.4963C9.05859 18.3924 8.78683 18.3492 8.51621 18.3702C8.24559 18.3912 7.98375 18.4758 7.752 18.6171C6.209 19.5571 4.442 17.7911 5.382 16.2471C5.5231 16.0154 5.60755 15.7537 5.62848 15.4833C5.64942 15.2129 5.60624 14.9413 5.50247 14.6907C5.3987 14.4401 5.23726 14.2175 5.03127 14.041C4.82529 13.8645 4.58056 13.7392 4.317 13.6751C2.561 13.2491 2.561 10.7511 4.317 10.3251C4.5808 10.2611 4.82578 10.1358 5.032 9.95935C5.23822 9.78286 5.39985 9.56017 5.50375 9.30941C5.60764 9.05865 5.65085 8.7869 5.62987 8.51628C5.60889 8.24566 5.5243 7.98381 5.383 7.75206C4.443 6.20906 6.209 4.44206 7.753 5.38206C8.753 5.99006 10.049 5.45206 10.325 4.31706Z" stroke="white" stroke-opacity="0.38" stroke-width="2" stroke-linecap="round" stroke-linejoin="round"/>
<path d="M9 12.0001C9 12.7957 9.31607 13.5588 9.87868 14.1214C10.4413 14.684 11.2044 15.0001 12 15.0001C12.7956 15.0001 13.5587 14.684 14.1213 14.1214C14.6839 13.5588 15 12.7957 15 12.0001C15 11.2044 14.6839 10.4413 14.1213 9.87874C13.5587 9.31613 12.7956 9.00006 12 9.00006C11.2044 9.00006 10.4413 9.31613 9.87868 9.87874C9.31607 10.4413 9 11.2044 9 12.0001Z" stroke="white" stroke-opacity="0.38" stroke-width="2" stroke-linecap="round" stroke-linejoin="round"/>
</g>
<defs>
<clipPath id="clip0_777_8500">
<rect width="24" height="24" fill="white"/>
</clipPath>
</defs>
</svg>
