<svg width="22" height="23" viewBox="0 0 22 23" fill="none" xmlns="http://www.w3.org/2000/svg">
<g clip-path="url(#clip0_734_6135)">
<path d="M2.9043 11.7351C2.9043 12.7983 3.11372 13.8511 3.5206 14.8334C3.92748 15.8157 4.52385 16.7082 5.27567 17.4601C6.02749 18.2119 6.92003 18.8083 7.90233 19.2151C8.88463 19.622 9.93745 19.8314 11.0007 19.8314C12.0639 19.8314 13.1167 19.622 14.099 19.2151C15.0813 18.8083 15.9739 18.2119 16.7257 17.4601C17.4775 16.7082 18.0739 15.8157 18.4808 14.8334C18.8876 13.8511 19.0971 12.7983 19.0971 11.7351C19.0971 10.6718 18.8876 9.619 18.4808 8.6367C18.0739 7.65441 17.4775 6.76187 16.7257 6.01005C15.9739 5.25823 15.0813 4.66185 14.099 4.25497C13.1167 3.84809 12.0639 3.63867 11.0007 3.63867C9.93745 3.63867 8.88463 3.84809 7.90233 4.25497C6.92003 4.66185 6.02749 5.25823 5.27567 6.01005C4.52385 6.76187 3.92748 7.65441 3.5206 8.6367C3.11372 9.619 2.9043 10.6718 2.9043 11.7351Z" stroke="#112D44" stroke-width="1.7992" stroke-linecap="round" stroke-linejoin="round"/>
<path d="M13.248 15.3782C12.9548 15.079 12.6049 14.8413 12.2187 14.6791C11.8326 14.5168 11.4179 14.4332 10.999 14.4332C10.5801 14.4332 10.1654 14.5168 9.77925 14.6791C9.39308 14.8413 9.04316 15.079 8.75 15.3782" stroke="#112D44" stroke-width="1.7992" stroke-linecap="round" stroke-linejoin="round"/>
<path d="M9.20075 9.26096C8.75095 10.1606 6.95175 10.1606 6.50195 9.26096" stroke="#112D44" stroke-width="1.7992" stroke-linecap="round" stroke-linejoin="round"/>
<path d="M15.4976 9.26096C15.0478 10.1606 13.2486 10.1606 12.7988 9.26096" stroke="#112D44" stroke-width="1.7992" stroke-linecap="round" stroke-linejoin="round"/>
</g>
<defs>
<clipPath id="clip0_734_6135">
<rect width="21.5904" height="21.5904" fill="white" transform="translate(0.205078 0.939911)"/>
</clipPath>
</defs>
</svg>
