<svg width="24" height="25" viewBox="0 0 24 25" fill="none" xmlns="http://www.w3.org/2000/svg">
<g clip-path="url(#clip0_777_8558)">
<path d="M12 21.5C9.61305 21.5 7.32387 20.5518 5.63604 18.864C3.94821 17.1761 3 14.8869 3 12.5C3 11.3181 3.23279 10.1478 3.68508 9.05585C4.13738 7.96392 4.80031 6.97177 5.63604 6.13604C6.47177 5.30031 7.46392 4.63738 8.55585 4.18508C9.64778 3.73279 10.8181 3.5 12 3.5C13.1819 3.5 14.3522 3.73279 15.4442 4.18508C16.5361 4.63738 17.5282 5.30031 18.364 6.13604C19.1997 6.97177 19.8626 7.96392 20.3149 9.05585C20.7672 10.1478 21 11.3181 21 12.5" stroke="#2C3E50" stroke-width="2" stroke-linecap="round" stroke-linejoin="round"/>
<path d="M12 7.5V12.5L12.5 13" stroke="#2C3E50" stroke-width="2" stroke-linecap="round" stroke-linejoin="round"/>
<path d="M18 15.5H20C20.2652 15.5 20.5196 15.6054 20.7071 15.7929C20.8946 15.9804 21 16.2348 21 16.5V17.5C21 17.7652 20.8946 18.0196 20.7071 18.2071C20.5196 18.3946 20.2652 18.5 20 18.5H19C18.7348 18.5 18.4804 18.6054 18.2929 18.7929C18.1054 18.9804 18 19.2348 18 19.5V20.5C18 20.7652 18.1054 21.0196 18.2929 21.2071C18.4804 21.3946 18.7348 21.5 19 21.5H21" stroke="#2C3E50" stroke-width="2" stroke-linecap="round" stroke-linejoin="round"/>
<path d="M15 21.5V15.5" stroke="#2C3E50" stroke-width="2" stroke-linecap="round" stroke-linejoin="round"/>
</g>
<defs>
<clipPath id="clip0_777_8558">
<rect width="24" height="24" fill="white" transform="translate(0 0.5)"/>
</clipPath>
</defs>
</svg>
