<svg width="20" height="20" viewBox="0 0 20 20" fill="none" xmlns="http://www.w3.org/2000/svg">
<path d="M2.08331 9.16667H1.45831V9.62475L1.89511 9.76267L2.08331 9.16667ZM17.9166 9.16667L18.1049 9.76267L18.5416 9.62475V9.16675L17.9166 9.16667ZM17.917 5L18.542 5.00005C18.542 4.83428 18.4761 4.6753 18.359 4.55807C18.2417 4.44086 18.0827 4.375 17.917 4.375V5ZM2.08331 5V4.375C1.73814 4.375 1.45831 4.65483 1.45831 5H2.08331ZM2.08331 5.625H17.917V4.375H2.08331V5.625ZM1.45831 5V9.16667H2.70831V5H1.45831ZM18.5416 9.16675L18.542 5.00005L17.292 4.99995L17.2916 9.16658L18.5416 9.16675ZM17.7284 8.57067L11.4784 10.5444L11.8549 11.7364L18.1049 9.76267L17.7284 8.57067ZM8.52206 10.5444L2.27151 8.57067L1.89511 9.76267L8.14565 11.7364L8.52206 10.5444Z" fill="#BDBDBD"/>
<path d="M2.9161 9.5835L2.91583 17.9168H17.0825V9.5835" stroke="#BDBDBD" stroke-width="1.5" stroke-linejoin="round"/>
<path d="M12.9166 5.00016V2.0835H7.08331V5.00016" stroke="#BDBDBD" stroke-width="1.5" stroke-linejoin="round"/>
<path d="M11.6666 9.5835H8.33331V11.2502C8.33331 12.1707 9.07948 12.9168 9.99998 12.9168C10.9205 12.9168 11.6666 12.1707 11.6666 11.2502V9.5835Z" stroke="#BDBDBD" stroke-width="1.5"/>
</svg>
