<svg width="20" height="20" viewBox="0 0 20 20" fill="none" xmlns="http://www.w3.org/2000/svg">
<path d="M4.16669 8.33317H5.83335C7.50002 8.33317 8.33335 7.49984 8.33335 5.83317V4.1665C8.33335 2.49984 7.50002 1.6665 5.83335 1.6665H4.16669C2.50002 1.6665 1.66669 2.49984 1.66669 4.1665V5.83317C1.66669 7.49984 2.50002 8.33317 4.16669 8.33317Z" stroke="#BDBDBD" stroke-width="1.5" stroke-miterlimit="10" stroke-linecap="round" stroke-linejoin="round"/>
<path d="M14.1667 8.33317H15.8334C17.5 8.33317 18.3334 7.49984 18.3334 5.83317V4.1665C18.3334 2.49984 17.5 1.6665 15.8334 1.6665H14.1667C12.5 1.6665 11.6667 2.49984 11.6667 4.1665V5.83317C11.6667 7.49984 12.5 8.33317 14.1667 8.33317Z" stroke="#BDBDBD" stroke-width="1.5" stroke-miterlimit="10" stroke-linecap="round" stroke-linejoin="round"/>
<path d="M14.1667 18.3332H15.8334C17.5 18.3332 18.3334 17.4998 18.3334 15.8332V14.1665C18.3334 12.4998 17.5 11.6665 15.8334 11.6665H14.1667C12.5 11.6665 11.6667 12.4998 11.6667 14.1665V15.8332C11.6667 17.4998 12.5 18.3332 14.1667 18.3332Z" stroke="#BDBDBD" stroke-width="1.5" stroke-miterlimit="10" stroke-linecap="round" stroke-linejoin="round"/>
<path d="M4.16669 18.3332H5.83335C7.50002 18.3332 8.33335 17.4998 8.33335 15.8332V14.1665C8.33335 12.4998 7.50002 11.6665 5.83335 11.6665H4.16669C2.50002 11.6665 1.66669 12.4998 1.66669 14.1665V15.8332C1.66669 17.4998 2.50002 18.3332 4.16669 18.3332Z" stroke="#BDBDBD" stroke-width="1.5" stroke-miterlimit="10" stroke-linecap="round" stroke-linejoin="round"/>
</svg>
