<svg width="17" height="16" viewBox="0 0 17 16" fill="none" xmlns="http://www.w3.org/2000/svg">
<path d="M9.85833 13.958C9.73655 13.9579 9.61711 13.9245 9.51299 13.8613L7.29033 12.528C7.04024 12.3772 6.83324 12.1645 6.68926 11.9104C6.54528 11.6563 6.46919 11.3694 6.46833 11.0773V8.06067C6.46875 7.84776 6.40255 7.64006 6.27899 7.46667L3.17566 3.10534C3.10319 3.00466 3.05995 2.88591 3.0507 2.76221C3.04145 2.6385 3.06656 2.51465 3.12324 2.40431C3.17993 2.29397 3.266 2.20143 3.37195 2.13691C3.4779 2.07239 3.59961 2.0384 3.72366 2.03867H13.277C13.4011 2.03815 13.523 2.072 13.6291 2.13647C13.7352 2.20094 13.8214 2.29352 13.8781 2.40394C13.9349 2.51437 13.9599 2.63834 13.9505 2.76214C13.9412 2.88593 13.8977 3.00472 13.825 3.10534L10.7217 7.46667C10.5979 7.63998 10.5314 7.84769 10.5317 8.06067V13.2833C10.5315 13.462 10.4605 13.6333 10.3343 13.7597C10.2081 13.8862 10.037 13.9575 9.85833 13.958ZM3.72366 2.70867L6.82166 7.08C7.02698 7.36564 7.13665 7.70891 7.13499 8.06067V11.0767C7.13524 11.2536 7.18122 11.4275 7.26847 11.5815C7.35573 11.7354 7.4813 11.8642 7.63299 11.9553L9.85566 13.2887L9.86499 8.06C9.86352 7.70817 9.97344 7.36489 10.179 7.07934L13.2817 2.71801L3.72366 2.70867Z" fill="black"/>
</svg>
