<svg width="20" height="20" viewBox="0 0 20 20" fill="none" xmlns="http://www.w3.org/2000/svg">
<path d="M5.83331 15.0002V13.3335" stroke="#BDBDBD" stroke-width="1.5" stroke-linecap="round"/>
<path d="M10 15V12.5" stroke="#BDBDBD" stroke-width="1.5" stroke-linecap="round"/>
<path d="M14.1667 15.0002V10.8335" stroke="#BDBDBD" stroke-width="1.5" stroke-linecap="round"/>
<path d="M5 8.95834C4.65483 8.95834 4.375 9.23817 4.375 9.58334C4.375 9.9285 4.65483 10.2083 5 10.2083V8.95834ZM13.876 5.72675C14.0472 5.42706 13.9431 5.04528 13.6434 4.87402C13.3438 4.70276 12.9619 4.80689 12.7907 5.10659L13.876 5.72675ZM11.5649 4.62899C11.2243 4.68516 10.9938 5.0068 11.05 5.34737C11.1062 5.68795 11.4278 5.9185 11.7684 5.86232L11.5649 4.62899ZM13.5658 6.8388C13.6609 7.17063 14.007 7.36256 14.3388 7.2675C14.6707 7.17244 14.8626 6.82637 14.7675 6.49454L13.5658 6.8388ZM5 10.2083C8.89517 10.2083 12.0637 8.89834 13.876 5.72675L12.7907 5.10659C11.2697 7.76836 8.60483 8.95834 5 8.95834V10.2083ZM11.7684 5.86232L12.8247 5.68807L12.6213 4.45474L11.5649 4.62899L11.7684 5.86232ZM13.3007 5.91341L13.5658 6.8388L14.7675 6.49454L14.5024 5.56915L13.3007 5.91341ZM12.8247 5.68807C13.0618 5.64895 13.1857 5.62958 13.2727 5.6256C13.3452 5.6223 13.3099 5.63535 13.2529 5.60298L13.8707 4.51626C13.6412 4.38579 13.4085 4.3681 13.2157 4.3769C13.0376 4.38503 12.8283 4.4206 12.6213 4.45474L12.8247 5.68807ZM14.5024 5.56915C14.4518 5.39253 14.3968 5.19484 14.3243 5.03421C14.2408 4.84926 14.1087 4.65155 13.8707 4.51626L13.2529 5.60298C13.2277 5.58863 13.2048 5.56874 13.1886 5.549C13.1752 5.53265 13.1753 5.52705 13.1849 5.54849C13.1952 5.57107 13.2094 5.60861 13.2299 5.6732C13.2503 5.7377 13.2722 5.81371 13.3007 5.91341L14.5024 5.56915Z" fill="#BDBDBD"/>
<path d="M2.08331 10.0002C2.08331 6.26821 2.08331 4.40224 3.24268 3.24286C4.40205 2.0835 6.26803 2.0835 9.99998 2.0835C13.7319 2.0835 15.5979 2.0835 16.7573 3.24286C17.9166 4.40224 17.9166 6.26821 17.9166 10.0002C17.9166 13.7321 17.9166 15.5981 16.7573 16.7575C15.5979 17.9168 13.7319 17.9168 9.99998 17.9168C6.26803 17.9168 4.40205 17.9168 3.24268 16.7575C2.08331 15.5981 2.08331 13.7321 2.08331 10.0002Z" stroke="#BDBDBD" stroke-width="1.5"/>
</svg>
