<svg width="24" height="24" viewBox="0 0 24 24" fill="none" xmlns="http://www.w3.org/2000/svg">
<path d="M18.7244 6.91631L13.329 2.86967C12.9954 2.61951 12.5898 2.48425 12.1728 2.48425C11.7559 2.48425 11.35 2.61951 11.0164 2.86967L5.62099 6.91631C5.262 7.18555 4.97061 7.53466 4.76994 7.93602C4.56926 8.33738 4.46484 8.77999 4.46484 9.22872V19.8272C4.46484 20.3382 4.66778 20.8284 5.02916 21.1897C5.39054 21.5511 5.88077 21.7542 6.39184 21.7542H17.9538C18.4649 21.7542 18.9548 21.5511 19.3162 21.1897C19.6776 20.8284 19.8808 20.3382 19.8808 19.8272V9.22872C19.8808 8.77999 19.7761 8.33738 19.5754 7.93602C19.3748 7.53466 19.0834 7.18555 18.7244 6.91631V6.91631Z" stroke="#7C375D" stroke-width="1.91405" stroke-miterlimit="10"/>
<path d="M12.1719 13.0829V18.8639" stroke="#7C375D" stroke-width="1.91405" stroke-miterlimit="10"/>
</svg>
