<svg width="13" height="13" viewBox="0 0 13 13" fill="none" xmlns="http://www.w3.org/2000/svg">
<g clip-path="url(#clip0_641_4542)">
<path d="M11.0589 5.53314C10.7236 5.61927 10.4976 5.80341 10.2872 6.01683C9.96165 6.34836 9.62571 6.67201 9.29409 6.99852C9.25973 7.0341 9.22394 7.06503 9.18308 7.10522C8.85716 6.78337 8.46278 6.70244 8.02634 6.70698C7.14408 6.71604 6.26223 6.70834 5.38001 6.70243C4.92374 6.70121 4.53705 6.85282 4.21663 7.17331C4.06871 7.32128 3.91936 7.46746 3.75952 7.62502C3.53413 7.20216 3.44547 6.77146 3.5152 6.32085C3.62751 5.5911 3.95384 4.95001 4.36482 4.34874C4.72402 3.82258 5.15375 3.35616 5.60292 2.90621C5.65885 2.84709 5.69528 2.77256 5.70737 2.6925C5.75188 2.36843 5.99523 2.13655 6.32562 2.13564C7.03666 2.13373 7.74769 2.13563 8.4587 2.14132C8.80099 2.14224 9.04812 2.38898 9.07464 2.72643C9.08316 2.79031 9.11265 2.84965 9.15859 2.89535C9.70897 3.44319 10.2236 4.01982 10.616 4.69136C10.7726 4.9589 10.906 5.24065 11.0589 5.53314Z" fill="#112D44"/>
<path d="M7.33353 10.0308C7.35152 8.69347 8.49745 7.59557 9.85538 7.61452C11.1971 7.63272 12.3 8.73447 12.2835 10.0401C12.2661 11.4463 11.1613 12.5293 9.76697 12.5078C8.42311 12.4871 7.31556 11.3596 7.33353 10.0308ZM9.53734 10.2931C9.41432 10.1673 9.30102 10.0471 9.18338 9.93198C9.06575 9.81683 8.94348 9.81579 8.85089 9.91148C8.7583 10.0072 8.76737 10.1213 8.87492 10.2307C9.0344 10.3933 9.19592 10.554 9.35948 10.7128C9.48612 10.8362 9.5954 10.8368 9.72233 10.7137C9.91543 10.5277 10.1053 10.3382 10.2962 10.1504C10.4525 9.9967 10.6108 9.84519 10.7635 9.68797C10.8597 9.58872 10.8564 9.46567 10.7661 9.37983C10.6823 9.29972 10.5604 9.30154 10.4631 9.38616C10.427 9.41852 10.3908 9.45444 10.3572 9.48859L9.53734 10.2931Z" fill="#112D44"/>
<path d="M7.03191 10.8963C6.68481 10.9428 6.35574 10.989 6.02597 11.027C5.9899 11.0312 5.94057 10.9979 5.91396 10.9675C5.83809 10.8806 5.77921 10.7781 5.69827 10.697C5.0028 9.99989 4.30528 9.30507 3.60572 8.61251C3.56974 8.57675 3.53014 8.54919 3.48659 8.51341C3.52277 8.47427 3.54267 8.44758 3.5669 8.42375C3.862 8.13066 4.15758 7.83781 4.45364 7.5452C4.58159 7.41368 4.73643 7.31064 4.90784 7.24295C5.07924 7.17527 5.26327 7.1445 5.44766 7.15269C6.35148 7.1715 7.25646 7.16286 8.1607 7.16491C8.38288 7.1655 8.58616 7.21954 8.76432 7.36053C8.56746 7.46949 8.37171 7.56527 8.18745 7.68247C7.87234 7.8834 7.60419 8.14847 7.40089 8.45999C7.3844 8.49055 7.35914 8.5156 7.3283 8.53202C7.29745 8.54843 7.26239 8.55547 7.22752 8.55226C6.98912 8.54592 6.75069 8.55099 6.51228 8.55035C6.33194 8.54987 6.2311 8.62949 6.23326 8.7668C6.23542 8.90412 6.33189 8.97499 6.50502 8.97616C6.70267 8.97669 6.90177 8.97722 7.11818 8.9778C6.87476 9.59007 6.84441 10.2651 7.03191 10.8963Z" fill="#112D44"/>
<path d="M5.58982 11.3465C5.53944 11.4373 5.50562 11.5435 5.43617 11.6164C5.18877 11.8747 4.92986 12.1243 4.67347 12.3719C4.49882 12.5394 4.26654 12.5388 4.09638 12.3704C3.32319 11.6039 2.55241 10.8362 1.78403 10.0674C1.60777 9.89076 1.61017 9.6643 1.78738 9.4861C2.03307 9.23853 2.28115 8.99322 2.53163 8.75019C2.71642 8.57236 2.96998 8.57303 3.1448 8.74932C3.89544 9.49813 4.64607 10.2471 5.3967 10.9961C5.49861 11.0885 5.56655 11.2117 5.58982 11.3465Z" fill="#112D44"/>
<path d="M8.98429 1.85207C8.7682 1.73131 8.55185 1.71076 8.32786 1.71159C7.69341 1.71454 7.05899 1.70322 6.42488 1.71223C6.22253 1.7149 6.02114 1.76287 5.81908 1.7905L5.81681 1.83258C5.80569 1.81562 5.79643 1.79755 5.78918 1.77866C5.71247 1.46354 5.63432 1.14841 5.56122 0.832233C5.51915 0.649163 5.61105 0.540632 5.80258 0.539002C6.11566 0.535913 6.40397 0.625129 6.68097 0.763887C6.98339 0.91865 7.32922 0.969748 7.66417 0.909163C7.81212 0.882809 7.95296 0.818275 8.09736 0.772296C8.33164 0.697668 8.56665 0.62019 8.80164 0.553053C8.87202 0.537692 8.94466 0.535347 9.0159 0.546135C9.18899 0.563358 9.27132 0.662724 9.23409 0.828463C9.15852 1.16743 9.0707 1.50422 8.98429 1.85207Z" fill="#112D44"/>
<path d="M11.6907 7.86871C11.1149 7.40925 10.481 7.1811 9.75062 7.18807C9.75913 7.16706 9.77008 7.1471 9.78324 7.12859C10.095 6.82022 10.4017 6.50683 10.7206 6.20596C10.8684 6.06964 11.0571 5.98474 11.2581 5.96416C11.4591 5.94358 11.6614 5.98845 11.8343 6.09195C12.1819 6.2958 12.3737 6.71894 12.2721 7.08565C12.2396 7.20096 12.1851 7.30905 12.1115 7.40406C11.9848 7.56457 11.8376 7.70897 11.6907 7.86871Z" fill="#112D44"/>
</g>
<defs>
<clipPath id="clip0_641_4542">
<rect width="11.9682" height="11.9682" fill="white" transform="translate(1.0127 0.519135) rotate(0.152608)"/>
</clipPath>
</defs>
</svg>
