<svg width="16" height="16" viewBox="0 0 16 16" fill="none" xmlns="http://www.w3.org/2000/svg">
<path d="M8.01357 13.6867C6.46024 13.6867 4.9069 13.44 3.43357 12.9467C2.87357 12.7533 2.4469 12.36 2.26024 11.8467C2.0669 11.3333 2.13357 10.7667 2.44024 10.26L3.2069 8.98667C3.3669 8.72 3.51357 8.18667 3.51357 7.87334V5.94667C3.51357 3.46667 5.53357 1.44667 8.01357 1.44667C10.4936 1.44667 12.5136 3.46667 12.5136 5.94667V7.87334C12.5136 8.18 12.6602 8.72 12.8202 8.99334L13.5802 10.26C13.8669 10.74 13.9202 11.32 13.7269 11.8467C13.5336 12.3733 13.1136 12.7733 12.5869 12.9467C11.1202 13.44 9.56691 13.6867 8.01357 13.6867ZM8.01357 2.44667C6.08691 2.44667 4.51357 4.01334 4.51357 5.94667V7.87334C4.51357 8.36 4.31357 9.08 4.0669 9.5L3.30024 10.7733C3.15357 11.02 3.11357 11.28 3.20024 11.5C3.28024 11.7267 3.48024 11.9 3.75357 11.9933C6.54024 12.9267 9.49357 12.9267 12.2802 11.9933C12.5202 11.9133 12.7069 11.7333 12.7936 11.4933C12.8802 11.2533 12.8602 10.9933 12.7269 10.7733L11.9602 9.5C11.7069 9.06667 11.5136 8.35334 11.5136 7.86667V5.94667C11.5136 4.01334 9.94691 2.44667 8.01357 2.44667Z" fill="#292D32"/>
<path d="M9.25308 2.62667C9.20642 2.62667 9.15975 2.62 9.11308 2.60667C8.91975 2.55333 8.73308 2.51333 8.55308 2.48667C7.98642 2.41333 7.43975 2.45333 6.92642 2.60667C6.73975 2.66667 6.53975 2.60667 6.41308 2.46667C6.28642 2.32667 6.24642 2.12667 6.31975 1.94667C6.59308 1.24667 7.25975 0.786667 8.01975 0.786667C8.77975 0.786667 9.44642 1.24 9.71975 1.94667C9.78642 2.12667 9.75308 2.32667 9.62642 2.46667C9.52642 2.57333 9.38642 2.62667 9.25308 2.62667Z" fill="#292D32"/>
<path d="M8.01367 15.2067C7.35367 15.2067 6.71367 14.94 6.247 14.4733C5.78034 14.0067 5.51367 13.3667 5.51367 12.7067H6.51367C6.51367 13.1 6.67367 13.4867 6.95367 13.7667C7.23367 14.0467 7.62034 14.2067 8.01367 14.2067C8.84034 14.2067 9.51367 13.5333 9.51367 12.7067H10.5137C10.5137 14.0867 9.39367 15.2067 8.01367 15.2067Z" fill="#292D32"/>
</svg>
