<svg width="24" height="24" viewBox="0 0 24 24" fill="none" xmlns="http://www.w3.org/2000/svg">
<g clip-path="url(#clip0_777_8504)">
<path d="M17 8.00006V5.00006C17 4.73484 16.8946 4.48049 16.7071 4.29295C16.5196 4.10542 16.2652 4.00006 16 4.00006H6C5.46957 4.00006 4.96086 4.21077 4.58579 4.58585C4.21071 4.96092 4 5.46963 4 6.00006M4 6.00006C4 6.53049 4.21071 7.0392 4.58579 7.41427C4.96086 7.78935 5.46957 8.00006 6 8.00006H18C18.2652 8.00006 18.5196 8.10542 18.7071 8.29295C18.8946 8.48049 19 8.73484 19 9.00006V12.0001M4 6.00006V18.0001C4 18.5305 4.21071 19.0392 4.58579 19.4143C4.96086 19.7893 5.46957 20.0001 6 20.0001H18C18.2652 20.0001 18.5196 19.8947 18.7071 19.7072C18.8946 19.5196 19 19.2653 19 19.0001V16.0001" stroke="white" stroke-opacity="0.38" stroke-width="2" stroke-linecap="round" stroke-linejoin="round"/>
<path d="M20 12.0001V16.0001H16C15.4696 16.0001 14.9609 15.7893 14.5858 15.4143C14.2107 15.0392 14 14.5305 14 14.0001C14 13.4696 14.2107 12.9609 14.5858 12.5858C14.9609 12.2108 15.4696 12.0001 16 12.0001H20Z" stroke="white" stroke-opacity="0.38" stroke-width="2" stroke-linecap="round" stroke-linejoin="round"/>
</g>
<defs>
<clipPath id="clip0_777_8504">
<rect width="24" height="24" fill="white"/>
</clipPath>
</defs>
</svg>
